<?xml version="1.0" encoding="UTF-8" standalone="no"?>
<!-- Generator: Adobe Illustrator 18.0.0, SVG Export Plug-In . SVG Version: 6.00 Build 0)  -->

<svg
   version="1.1"
   id="Layer_1"
   x="0px"
   y="0px"
   viewBox="1589.1 -0.1 130.89999 119.09999"
   enable-background="new 1589.1 -0.1 410.9 383.1"
   xml:space="preserve"
   sodipodi:docname="Sway_Tree.svg"
   inkscape:version="1.4.2 (ebf0e94, 2025-05-08)"
   width="130.89999"
   height="119.1"
   xmlns:inkscape="http://www.inkscape.org/namespaces/inkscape"
   xmlns:sodipodi="http://sodipodi.sourceforge.net/DTD/sodipodi-0.dtd"
   xmlns="http://www.w3.org/2000/svg"
   xmlns:svg="http://www.w3.org/2000/svg"><defs
   id="defs13" /><sodipodi:namedview
   id="namedview13"
   pagecolor="#ffffff"
   bordercolor="#666666"
   borderopacity="1.0"
   inkscape:showpageshadow="2"
   inkscape:pageopacity="0.0"
   inkscape:pagecheckerboard="0"
   inkscape:deskcolor="#d1d1d1"
   showgrid="false"
   inkscape:zoom="2.1143304"
   inkscape:cx="205.26593"
   inkscape:cy="191.55"
   inkscape:window-width="1920"
   inkscape:window-height="1012"
   inkscape:window-x="0"
   inkscape:window-y="0"
   inkscape:window-maximized="1"
   inkscape:current-layer="Layer_1" />
<polygon
   fill="#ff4040"
   points="1999.9,304.6 1794.4,383 1589.1,304.6 1589.1,273.2 1794.4,291.5 1999.9,273.2 "
   id="polygon1"
   transform="matrix(0.3,0,0,0.3,1117.6068,2.0542012)" />
<path
   fill="#afa137"
   d="m 1655.9268,107.4742 -61.59,-23.459999 c 0,0 4.08,-1.59 4.86,-1.86 3.66,-1.35 7.5,-2.49 11.04,-4.02 7.35,-3.27 15.42,-5.34 23.46,-5.46 4.62,-0.06 8.94,1.35 13.44,0.66 5.22,-0.87 10.23,-2.82 15.48,-3.87 9.48,-1.8 18.69,0.66 27.45,4.14 9,3.54 17.76,6.69 26.79,10.14 0.27,0.12 0.48,0.15 0.75,0.27 z"
   id="path1"
   style="stroke-width:0.3" />
<g
   id="g3"
   transform="matrix(0.3,0,0,0.3,1117.6068,2.0542012)">
	<g
   id="g2">
		<path
   fill="#c6adac"
   d="m 1656.3,277.2 c -2.5,-57 55.2,-87.7 97.8,-111.1 37.2,-20.3 83.7,-46.8 74.1,-96.4 -2,-10.3 -17.8,-6 -15.8,4.4 4.4,22.7 -8.5,39.9 -25.8,53 -20.3,15.4 -43.7,26.3 -65.9,38.8 -40.8,23.2 -83.1,59.9 -81,111.3 0.8,10.5 17.1,10.5 16.6,0 z"
   id="path2" />
	</g>
</g>
<g
   id="g5"
   transform="matrix(0.3,0,0,0.3,1117.6068,2.0542012)">
	<g
   id="g4">
		<path
   fill="#c6adac"
   d="m 1728,183.7 c 56.6,11.8 116.4,-5.1 158.3,-45 7.6,-7.3 -4,-18.9 -11.6,-11.6 -37.4,35.8 -91.7,51.4 -142.3,40.8 -10.4,-2 -14.8,13.6 -4.4,15.8 z"
   id="path3" />
	</g>
</g>
<g
   id="g13"
   transform="matrix(0.3,0,0,0.3,1117.6068,2.0542012)">
	<path
   fill="#68751c"
   d="m 1727.8,64.8 c 14.9,3.6 40.1,-13.6 51.4,-19.1 14.5,-7.1 29.6,-12.5 44.3,-19.1 5.6,-2.5 24,-8.3 24.1,-16.5 0.4,-10.2 -19.1,-10.7 -25.4,-10 -12.9,1.3 -25.4,5.3 -37.8,8.9 -12.7,3.8 -25,8.9 -36.8,15.2 -8.9,4.7 -21.1,13.1 -26.3,21.8 -3.3,5.3 -3.1,13.1 2,16.7 1.2,1 2.9,1.7 4.5,2.1 z"
   id="path5" />
	<path
   fill="#68751c"
   d="m 1819.1,37.2 c 2.5,-1.5 5.1,-2.7 7.6,-4 21.1,-10 45.4,-18.2 69.3,-20 20.9,-1.6 43.9,-5.4 64.6,0.2 10.7,2.9 22.5,13.3 16.9,23.2 -4.2,7.4 -21.2,17.4 -28.7,22.9 -27.4,19.4 -65.7,28 -100.7,29.8 -25.4,1.3 -67.3,-13.3 -44.1,-40.7 4,-4.5 9.3,-8.1 15.1,-11.4 z"
   id="path6" />
	<path
   fill="#68751c"
   d="m 1958.9,60.1 c 5.8,0.2 12.5,1.6 15.2,6.9 2.2,4.4 0.5,9.6 -2.5,13.3 -3.3,3.6 -7.6,5.6 -12.2,7.4 -22.5,9.4 -46.6,15.1 -71,16.7 -6.7,0.4 -13.8,0.5 -20.3,-1.6 -6.5,-2.1 -12.3,-7.1 -14.2,-13.6 -4,-15.1 29,-20 37.9,-21.6 8.9,-1.6 17.8,-2.7 26.7,-3.1 13.5,-1 26.6,-5 40.4,-4.4 z"
   id="path7" />
	<path
   fill="#68751c"
   d="m 1955.6,158.8 c -8.9,-22 -62.4,2.2 -74.6,10 -4.5,2.9 -9.3,7.3 -8.3,12.5 0.9,5.6 7.6,8.2 13.4,8.9 14.1,1.8 80,-5.4 69.5,-31.4 z"
   id="path8" />
	<path
   fill="#68751c"
   d="m 1787.5,87.7 c -2.2,14.5 -21.8,30.5 -34.9,35 -12.7,4.5 -33.9,-4.9 -26.1,-20.3 6.9,-13.4 41,-37.4 55.9,-27.6 4.2,2.7 5.8,8.2 5.1,12.9 z"
   id="path9" />
	<path
   fill="#68751c"
   d="m 1825.1,159.9 c 20.9,2.5 42.3,-0.2 61.9,-7.6 4.4,-1.6 8.9,-3.8 10.7,-8.2 1.3,-3.3 0.4,-7.3 -2.2,-9.6 -2.5,-2.4 -6.5,-3.1 -9.6,-1.6 -5.8,-6.4 -16,-5.8 -24.5,-4.2 -13.4,2.7 -26.7,7.6 -38.8,14 -4.4,2.4 -9.3,6.4 -8,11.1 1.2,4.1 6.3,5.6 10.5,6.1 z"
   id="path10" />
	<path
   fill="#68751c"
   d="m 1849.4,143 c 27.6,6.2 57.9,-1.8 81.5,-17.1 3.1,-2 6.5,-5.1 6,-8.9 -0.7,-4.5 -6.5,-6 -11.3,-5.8 -26.9,0.4 -54.1,7.1 -77.5,20.7 -2.7,1.5 -5.6,4 -4.9,6.9 0.8,2.6 3.7,3.7 6.2,4.2 z"
   id="path11" />
	<g
   id="g12">
		<path
   fill="#68751c"
   d="m 1711.1,106.4 c 2.5,-3.1 4.7,-6.9 3.6,-10.5 -5.1,-20.1 -32.5,6 -39,12 -8.3,7.6 -8,14.3 5.6,14.3 11.3,-0.2 23.1,-7.7 29.8,-15.8 z"
   id="path12" />
	</g>
</g>
</svg>
